Coordinates
version=1
nRows=5
nColumns=40
inDegrees=yes

Units are S.I. units (second, meters, Newtons, ...)
If the header above contains a line with 'inDegrees', this indicates whether rotational values are in degrees (yes) or radians (no).

endheader
time	pelvis_tilt	pelvis_list	pelvis_rotation	pelvis_tx	pelvis_ty	pelvis_tz	hip_flexion_r	hip_adduction_r	hip_rotation_r	knee_angle_r	knee_angle_r_beta	ankle_angle_r	subtalar_angle_r	mtp_angle_r	hip_flexion_l	hip_adduction_l	hip_rotation_l	knee_angle_l	knee_angle_l_beta	ankle_angle_l	subtalar_angle_l	mtp_angle_l	lumbar_extension	lumbar_bending	lumbar_rotation	arm_flex_r	arm_add_r	arm_rot_r	elbow_flex_r	pro_sup_r	wrist_flex_r	wrist_dev_r	arm_flex_l	arm_add_l	arm_rot_l	elbow_flex_l	pro_sup_l	wrist_flex_l	wrist_dev_l
      4.11500000	     -4.45791871	     -2.11800693	    -16.83880444	     -0.27481548	      1.36644805	     -0.84837658	      9.42291083	     -3.77700743	      7.93484050	     12.44056743	      0.21712886	    -23.60481562	      0.00000000	      0.00000000	     -2.13336781	    -17.78408633	    -22.39503518	     13.38557896	      0.23362243	    -26.24755450	      0.00000000	      0.00000000	    -12.05368634	      4.88961033	     -3.53555309	    -55.83066795	    -36.45841837	     -1.04283313	    121.36993196	     87.89901202	      0.00000000	      0.00000000	    -27.25659984	    -60.34870935	     44.83720002	    106.18400028	     88.14752586	      0.00000000	      0.00000000
      4.12000000	     -4.56202172	     -2.08121675	    -16.85580509	     -0.27650716	      1.35739423	     -0.84912476	      9.85532461	     -3.93809485	      7.83873730	     12.66782627	      0.22109528	    -22.84001555	      0.00000000	      0.00000000	     -1.69751581	    -17.93821977	    -22.55303608	     13.71130596	      0.23930743	    -25.94598474	      0.00000000	      0.00000000	    -12.31669063	      4.96147092	     -3.59066906	    -55.90364361	    -36.32878427	     -1.15865013	    121.40450588	     87.86297387	      0.00000000	      0.00000000	    -27.12433063	    -60.35704612	     44.98869813	    106.12262882	     88.15911356	      0.00000000	      0.00000000
      4.12500000	     -4.66727763	     -2.01043498	    -16.84624627	     -0.27800649	      1.34803895	     -0.84991929	     10.25375687	     -4.14895776	      7.66455310	     12.85254522	      0.22431923	    -22.06311912	      0.00000000	      0.00000000	     -1.28478683	    -18.02141467	    -22.60333245	     13.91846075	      0.24292297	    -25.54021687	      0.00000000	      0.00000000	    -12.54015858	      4.99914904	     -3.75759499	    -55.89287409	    -36.31544507	     -1.12614946	    121.41467684	     87.85787705	      0.00000000	      0.00000000	    -27.22733558	    -60.34400956	     44.92790938	    106.09741431	     88.17035085	      0.00000000	      0.00000000
      4.13000000	     -4.88757779	     -1.96503041	    -16.93922795	     -0.27967048	      1.33822870	     -0.85050192	     10.85247169	     -4.23565336	      7.82033583	     13.23908468	      0.23106562	    -21.23645988	      0.00000000	      0.00000000	     -0.76289482	    -18.20274341	    -22.77976136	     14.23272892	      0.24840798	    -25.12856261	      0.00000000	      0.00000000	    -12.68601578	      5.08392363	     -3.84203718	    -55.90320296	    -36.29950619	     -1.12474069	    121.46138951	     87.74234687	      0.00000000	      0.00000000	    -27.50835174	    -60.28018329	     44.70165759	    106.13292897	     88.19479859	      0.00000000	      0.00000000
      4.13500000	     -4.96382323	     -1.79255744	    -16.95585027	     -0.28120767	      1.32836747	     -0.85132347	     11.25844881	     -4.55907201	      7.84699841	     13.43623730	      0.23450658	    -20.34268562	      0.00000000	      0.00000000	     -0.34128019	    -18.17114491	    -22.89058909	     14.46488598	      0.25245989	    -24.67624810	      0.00000000	      0.00000000	    -12.91243076	      5.00526197	     -3.91701522	    -55.95918532	    -36.17009570	     -1.16908826	    121.52084595	     87.75708362	      0.00000000	      0.00000000	    -27.43054816	    -60.29751865	     44.81989923	    106.10682863	     88.17369501	      0.00000000	      0.00000000
